<svg width="39" height="43" xmlns="http://www.w3.org/2000/svg" xmlns:xlink="http://www.w3.org/1999/xlink" overflow="hidden"><g transform="translate(-567 -295)"><path d="M592.668 329.063 588.502 330.202 582.037 330.957 575.482 330.78 569.133 329.671 569.477 327.701 575.754 328.797 575.609 328.782 582.019 328.956 581.876 328.963 588.195 328.224 588.048 328.253 592.141 327.134ZM583.716 324.74 594.319 327.575 586.632 335.41C586.245 335.804 585.612 335.81 585.218 335.423 584.824 335.036 584.818 334.403 585.204 334.009L591.691 327.398 592.146 329.064 583.199 326.672C582.666 326.53 582.349 325.981 582.491 325.448 582.634 324.914 583.182 324.597 583.716 324.74Z" fill="currentColor"/><g><g><g><path d="M585.059 300.718C584.482 300.344 584.025 299.813 583.742 299.187L583.742 298.607C583.742 298.023 583.268 297.55 582.684 297.55 582.1 297.55 581.627 298.023 581.627 298.607L581.627 314.684C580.599 314.509 579.543 314.613 578.57 314.986 576.262 315.823 574.845 317.75 575.401 319.288 575.957 320.825 578.283 321.402 580.591 320.559 582.198 319.964 583.367 318.865 583.742 317.711L583.742 306.268C583.938 306.435 584.148 306.585 584.37 306.718 587.916 308.814 585.956 312.219 587.696 312.219 589.886 312.237 589.977 303.996 585.059 300.718Z" fill="currentColor"/></g></g></g></g></svg>
